<mxfile host="65bd71144e">
    <diagram name="페이지-1" id="tCMl_iyAes5gaJrTplxd">
        <mxGraphModel dx="1384" dy="907" grid="1" gridSize="10" guides="1" tooltips="1" connect="1" arrows="1" fold="1" page="1" pageScale="1" pageWidth="827" pageHeight="1169" math="0" shadow="0">
            <root>
                <mxCell id="0"/>
                <mxCell id="1" parent="0"/>
                <mxCell id="CwWciGCMBSkFRej0DaMF-19" value="" style="rounded=0;whiteSpace=wrap;html=1;fillColor=#dae8fc;strokeColor=#6c8ebf;" parent="1" vertex="1">
                    <mxGeometry x="550" y="365" width="120" height="135" as="geometry"/>
                </mxCell>
                <mxCell id="CwWciGCMBSkFRej0DaMF-17" value="" style="whiteSpace=wrap;html=1;aspect=fixed;fillColor=#f8cecc;strokeColor=#b85450;" parent="1" vertex="1">
                    <mxGeometry x="550" y="100" width="100" height="100" as="geometry"/>
                </mxCell>
                <mxCell id="CwWciGCMBSkFRej0DaMF-9" value="" style="edgeStyle=orthogonalEdgeStyle;rounded=0;orthogonalLoop=1;jettySize=auto;html=1;exitX=1;exitY=0.25;exitDx=0;exitDy=0;" parent="1" source="CwWciGCMBSkFRej0DaMF-1" target="CwWciGCMBSkFRej0DaMF-8" edge="1">
                    <mxGeometry relative="1" as="geometry">
                        <Array as="points">
                            <mxPoint x="552" y="123"/>
                            <mxPoint x="552" y="120"/>
                        </Array>
                    </mxGeometry>
                </mxCell>
                <mxCell id="CwWciGCMBSkFRej0DaMF-11" value="" style="edgeStyle=orthogonalEdgeStyle;rounded=0;orthogonalLoop=1;jettySize=auto;html=1;" parent="1" source="CwWciGCMBSkFRej0DaMF-1" target="CwWciGCMBSkFRej0DaMF-10" edge="1">
                    <mxGeometry relative="1" as="geometry"/>
                </mxCell>
                <mxCell id="CwWciGCMBSkFRej0DaMF-1" value="DATA MUX" style="rounded=0;whiteSpace=wrap;html=1;fillColor=#ffe6cc;strokeColor=#d79b00;fontStyle=1;fontSize=18;" parent="1" vertex="1">
                    <mxGeometry x="374" y="70" width="120" height="210" as="geometry"/>
                </mxCell>
                <mxCell id="CwWciGCMBSkFRej0DaMF-4" style="edgeStyle=orthogonalEdgeStyle;rounded=0;orthogonalLoop=1;jettySize=auto;html=1;" parent="1" source="CwWciGCMBSkFRej0DaMF-2" target="CwWciGCMBSkFRej0DaMF-3" edge="1">
                    <mxGeometry relative="1" as="geometry"/>
                </mxCell>
                <mxCell id="CwWciGCMBSkFRej0DaMF-5" style="edgeStyle=orthogonalEdgeStyle;rounded=0;orthogonalLoop=1;jettySize=auto;html=1;entryX=0;entryY=0.75;entryDx=0;entryDy=0;" parent="1" source="CwWciGCMBSkFRej0DaMF-2" target="CwWciGCMBSkFRej0DaMF-1" edge="1">
                    <mxGeometry relative="1" as="geometry"/>
                </mxCell>
                <mxCell id="CwWciGCMBSkFRej0DaMF-23" style="edgeStyle=orthogonalEdgeStyle;rounded=0;orthogonalLoop=1;jettySize=auto;html=1;entryX=0;entryY=0.5;entryDx=0;entryDy=0;exitX=1;exitY=0.75;exitDx=0;exitDy=0;" parent="1" source="CwWciGCMBSkFRej0DaMF-2" target="CwWciGCMBSkFRej0DaMF-22" edge="1">
                    <mxGeometry relative="1" as="geometry">
                        <Array as="points">
                            <mxPoint x="330" y="465"/>
                        </Array>
                    </mxGeometry>
                </mxCell>
                <mxCell id="CwWciGCMBSkFRej0DaMF-2" value="CU" style="rounded=0;whiteSpace=wrap;html=1;fillColor=#d5e8d4;strokeColor=#82b366;fontStyle=1;fontSize=18;" parent="1" vertex="1">
                    <mxGeometry x="210" y="290" width="120" height="210" as="geometry"/>
                </mxCell>
                <mxCell id="CwWciGCMBSkFRej0DaMF-16" value="" style="edgeStyle=orthogonalEdgeStyle;rounded=0;orthogonalLoop=1;jettySize=auto;html=1;fontSize=16;fontStyle=1" parent="1" source="CwWciGCMBSkFRej0DaMF-3" target="CwWciGCMBSkFRej0DaMF-15" edge="1">
                    <mxGeometry relative="1" as="geometry"/>
                </mxCell>
                <mxCell id="CwWciGCMBSkFRej0DaMF-3" value="SEL DECODER" style="rounded=0;whiteSpace=wrap;html=1;fillColor=#fff2cc;strokeColor=#d6b656;fontStyle=1;fontSize=18;" parent="1" vertex="1">
                    <mxGeometry x="400" y="350" width="120" height="90" as="geometry"/>
                </mxCell>
                <mxCell id="CwWciGCMBSkFRej0DaMF-7" value="" style="edgeStyle=orthogonalEdgeStyle;rounded=0;orthogonalLoop=1;jettySize=auto;html=1;" parent="1" source="CwWciGCMBSkFRej0DaMF-6" target="CwWciGCMBSkFRej0DaMF-1" edge="1">
                    <mxGeometry relative="1" as="geometry"/>
                </mxCell>
                <mxCell id="CwWciGCMBSkFRej0DaMF-6" value="data[31:0][0:31]" style="text;html=1;align=center;verticalAlign=middle;whiteSpace=wrap;rounded=0;fontSize=18;fontStyle=1" parent="1" vertex="1">
                    <mxGeometry x="40" y="160" width="150" height="30" as="geometry"/>
                </mxCell>
                <mxCell id="CwWciGCMBSkFRej0DaMF-8" value="rdata[31:0]" style="text;html=1;align=center;verticalAlign=middle;whiteSpace=wrap;rounded=0;fontSize=16;fontStyle=1" parent="1" vertex="1">
                    <mxGeometry x="550" y="109" width="90" height="30" as="geometry"/>
                </mxCell>
                <mxCell id="CwWciGCMBSkFRej0DaMF-14" value="" style="edgeStyle=orthogonalEdgeStyle;rounded=0;orthogonalLoop=1;jettySize=auto;html=1;entryX=1;entryY=0.25;entryDx=0;entryDy=0;" parent="1" source="CwWciGCMBSkFRej0DaMF-10" target="CwWciGCMBSkFRej0DaMF-2" edge="1">
                    <mxGeometry relative="1" as="geometry">
                        <Array as="points">
                            <mxPoint x="520" y="175"/>
                            <mxPoint x="520" y="343"/>
                        </Array>
                    </mxGeometry>
                </mxCell>
                <mxCell id="CwWciGCMBSkFRej0DaMF-10" value="ready" style="text;html=1;align=center;verticalAlign=middle;whiteSpace=wrap;rounded=0;fontSize=16;fontStyle=1" parent="1" vertex="1">
                    <mxGeometry x="550" y="160" width="50" height="30" as="geometry"/>
                </mxCell>
                <mxCell id="CwWciGCMBSkFRej0DaMF-15" value="PSEL" style="text;html=1;align=center;verticalAlign=middle;whiteSpace=wrap;rounded=0;fontSize=16;fontStyle=1" parent="1" vertex="1">
                    <mxGeometry x="550" y="380" width="50" height="30" as="geometry"/>
                </mxCell>
                <mxCell id="CwWciGCMBSkFRej0DaMF-18" value="CPU" style="rounded=0;whiteSpace=wrap;html=1;" parent="1" vertex="1">
                    <mxGeometry x="550" y="80" width="50" height="20" as="geometry"/>
                </mxCell>
                <mxCell id="CwWciGCMBSkFRej0DaMF-21" value="SLAVE" style="rounded=0;whiteSpace=wrap;html=1;" parent="1" vertex="1">
                    <mxGeometry x="550" y="345" width="50" height="20" as="geometry"/>
                </mxCell>
                <mxCell id="CwWciGCMBSkFRej0DaMF-22" value="SLAVECRTL" style="text;html=1;align=center;verticalAlign=middle;whiteSpace=wrap;rounded=0;fontStyle=1;fontSize=16;" parent="1" vertex="1">
                    <mxGeometry x="550" y="450" width="100" height="30" as="geometry"/>
                </mxCell>
                <mxCell id="CwWciGCMBSkFRej0DaMF-25" value="" style="edgeStyle=orthogonalEdgeStyle;rounded=0;orthogonalLoop=1;jettySize=auto;html=1;" parent="1" source="CwWciGCMBSkFRej0DaMF-24" target="CwWciGCMBSkFRej0DaMF-2" edge="1">
                    <mxGeometry relative="1" as="geometry"/>
                </mxCell>
                <mxCell id="CwWciGCMBSkFRej0DaMF-24" value="CPU&lt;div&gt;PPSELCRTL sig&lt;/div&gt;" style="text;html=1;align=center;verticalAlign=middle;whiteSpace=wrap;rounded=0;fontStyle=1;fontSize=17;" parent="1" vertex="1">
                    <mxGeometry x="50" y="355" width="130" height="80" as="geometry"/>
                </mxCell>
            </root>
        </mxGraphModel>
    </diagram>
</mxfile>